<svg width="67" height="68" viewBox="0 0 67 68" fill="none" xmlns="http://www.w3.org/2000/svg">
<path d="M66.1 16.5999C66.4492 16.2502 66.6869 15.805 66.7832 15.3203C66.8795 14.8356 66.83 14.3333 66.6409 13.8768C66.4519 13.4202 66.1318 13.0299 65.7211 12.7552C65.3103 12.4805 64.8274 12.3336 64.3333 12.3332H55.1666V3.16652C55.1662 2.67239 55.0193 2.18946 54.7446 1.77874C54.4699 1.36803 54.0796 1.04793 53.623 0.858896C53.1665 0.669858 52.6642 0.620353 52.1795 0.716635C51.6948 0.812916 51.2496 1.05066 50.9 1.39985L42.5666 9.73318C42.0977 10.2016 41.8339 10.837 41.8333 11.4999V20.9532L35.2266 27.5599C34.2389 27.2971 33.204 27.2645 32.2017 27.4648C31.1994 27.6651 30.2565 28.0928 29.4456 28.715C28.6347 29.3372 27.9775 30.1372 27.5246 31.0535C27.0717 31.9697 26.8352 32.9778 26.8333 33.9999C26.8337 34.9486 27.0367 35.8863 27.4285 36.7504C27.8204 37.6144 28.3922 38.3849 29.1057 39.0103C29.8192 39.6356 30.6579 40.1015 31.5659 40.3767C32.4738 40.652 33.4301 40.7303 34.3707 40.6064C35.3113 40.4824 36.2147 40.1592 37.0204 39.6582C37.8261 39.1572 38.5155 38.49 39.0427 37.7012C39.5699 36.9123 39.9226 36.0201 40.0774 35.084C40.2321 34.148 40.1853 33.1897 39.94 32.2732L46.5466 25.6665H56C56.6628 25.6659 57.2982 25.4022 57.7666 24.9332L66.1 16.5999ZM33.5 0.666519C37.3922 0.662825 41.255 1.34085 44.9133 2.66985L40.2066 7.37652C39.9977 7.58541 39.8077 7.80763 39.6366 8.04318C33.9899 6.70957 28.0623 7.25401 22.753 9.59391C17.4436 11.9338 13.0423 15.9415 10.2167 21.009C7.39102 26.0765 6.29521 31.9273 7.09547 37.6739C7.89574 43.4206 10.5484 48.7494 14.6511 52.8521C18.7538 56.9547 24.0826 59.6074 29.8292 60.4077C35.5758 61.2079 41.4267 60.1121 46.4942 57.2865C51.5617 54.4608 55.5693 50.0595 57.9092 44.7502C60.2491 39.4409 60.7936 33.5132 59.46 27.8665C59.6933 27.6932 59.9155 27.5021 60.1266 27.2932L64.8266 22.5865C66.1568 26.2446 66.8359 30.1074 66.8333 33.9999C66.8333 52.4099 51.91 67.3332 33.5 67.3332C15.09 67.3332 0.166626 52.4099 0.166626 33.9999C0.166626 15.5899 15.09 0.666519 33.5 0.666519ZM33.5 13.9999C35.2311 14.0043 36.8977 14.2154 38.5 14.6332V19.5732L37.12 20.9532L36.9566 21.1199C34.9809 20.593 32.9105 20.5269 30.9053 20.9269C28.9 21.3269 27.0134 22.1821 25.391 23.4267C23.7686 24.6713 22.4538 26.2719 21.548 28.1051C20.6422 29.9383 20.1696 31.9551 20.1666 33.9999C20.168 35.8972 20.5743 37.7725 21.3583 39.5003C22.1424 41.2281 23.2862 42.7686 24.7133 44.019C26.1404 45.2693 27.8179 46.2007 29.6338 46.7509C31.4496 47.3011 33.362 47.4574 35.2431 47.2093C37.1242 46.9612 38.9307 46.3146 40.5418 45.3125C42.153 44.3104 43.5317 42.976 44.5859 41.3984C45.6401 39.8209 46.3455 38.0365 46.6548 36.1645C46.9642 34.2925 46.8705 32.3761 46.38 30.5432L46.5466 30.3799L47.9266 28.9999H52.87C53.9127 33.0383 53.6667 37.3017 52.1666 41.1934C50.6664 45.0851 47.9871 48.4105 44.5035 50.7042C41.0199 52.9978 36.9064 54.145 32.7386 53.9852C28.5708 53.8253 24.5573 52.3665 21.2596 49.8128C17.9619 47.2591 15.5451 43.7383 14.3474 39.7431C13.1497 35.7479 13.231 31.4782 14.5799 27.5315C15.9288 23.5848 18.4779 20.1586 21.8704 17.7322C25.2629 15.3059 29.3291 14.0009 33.5 13.9999Z" fill="#FFD037"/>
</svg>
