<svg width="82" height="81" viewBox="0 0 82 81" fill="none" xmlns="http://www.w3.org/2000/svg">
<path d="M54.5 6.75C45.185 6.75 37.625 14.31 37.625 23.625C37.625 32.94 45.185 40.5 54.5 40.5C63.815 40.5 71.375 32.94 71.375 23.625C71.375 14.31 63.815 6.75 54.5 6.75ZM54.5 33.75C48.8975 33.75 44.375 29.2275 44.375 23.625C44.375 18.0225 48.8975 13.5 54.5 13.5C60.1025 13.5 64.625 18.0225 64.625 23.625C64.625 29.2275 60.1025 33.75 54.5 33.75ZM64.625 54H57.875C57.875 49.95 55.3438 46.305 51.5638 44.8875L30.7738 37.125H3.875V74.25H24.125V69.39L47.75 75.9375L74.75 67.5V64.125C74.75 58.5225 70.2275 54 64.625 54ZM17.375 67.5H10.625V43.875H17.375V67.5ZM47.6488 68.8838L24.125 62.4375V43.875H29.5587L49.2013 51.1987C50.3488 51.6375 51.125 52.7513 51.125 54C51.125 54 44.375 53.8313 43.3625 53.4938L35.33 50.8275L33.2037 57.24L41.2362 59.9062C42.9575 60.48 44.7463 60.75 46.5687 60.75H64.625C65.9412 60.75 67.1225 61.56 67.6625 62.6737L47.6488 68.8838Z" fill="#EB4D3D"/>
</svg>
