<svg width="40" height="73" viewBox="0 0 40 73" fill="none" xmlns="http://www.w3.org/2000/svg">
<path d="M24.964 63.52V72.5H16.964V63.928C10.116 63.528 4.7 61.572 0 56.74L6.872 49.78C10.308 53.26 14.964 54.42 20 54.42C26.26 54.42 29.62 52.024 29.62 47.612C29.62 45.68 29.088 44.056 27.94 42.972C26.872 41.968 25.652 41.424 23.132 41.04L16.564 40.112C11.908 39.416 8.476 37.948 6.028 35.548C3.436 32.92 2.136 29.364 2.136 24.72C2.136 16.1 7.664 9.748 16.964 8.32V0.5H24.964V8.228C30.492 8.808 34.824 10.708 38.624 14.432L31.908 21.16C28.472 17.832 24.352 17.372 20.76 17.372C15.112 17.372 12.364 20.54 12.364 24.332C12.364 25.724 12.824 27.196 13.968 28.276C15.036 29.284 16.792 30.132 19.008 30.44L25.416 31.368C30.38 32.064 33.508 33.456 35.8 35.62C38.704 38.404 40 42.428 40 47.3C40 56.3 33.732 61.948 24.964 63.52Z" fill="#90A4F2"/>
</svg>
