<svg width="54" height="67" viewBox="0 0 54 67" fill="none" xmlns="http://www.w3.org/2000/svg">
<path fill-rule="evenodd" clip-rule="evenodd" d="M7.54 53.5401C12.5689 60.4579 18.9444 64.889 26.6667 66.8334C34.3911 64.8912 40.7667 60.4612 45.7933 53.5434C50.82 46.6256 53.3333 38.9445 53.3333 30.5001V10.1667L26.6667 0.166748L1.47232e-06 10.1667V30.5001C-0.00222075 38.9423 2.51111 46.6223 7.54 53.5401ZM41 48.8334C37.2222 54.3334 32.4444 58.0001 26.6667 59.8334C20.8889 58.0001 16.1111 54.3334 12.3333 48.8334C8.55556 43.3334 6.66667 37.2223 6.66667 30.5001V14.7501L26.6667 7.25008L46.6667 14.7501V30.5001C46.6667 37.2223 44.7778 43.3334 41 48.8334Z" fill="#48BE62"/>
</svg>
